# Blender v2.63 (sub 0) OBJ File: 'cone.blend'
# www.blender.org
mtllib cone.mtl
o Cone.001
v -0.202050 -0.912174 -0.875596
v -0.109535 -0.950787 -0.850811
v -0.025623 -0.993168 -0.807933
v 0.046461 -1.037690 -0.748612
v 0.103948 -1.082642 -0.675126
v 0.144628 -1.126295 -0.590300
v 0.166938 -1.166972 -0.497394
v 0.170020 -1.203110 -0.399977
v 0.153756 -1.233321 -0.301793
v 0.118771 -1.256443 -0.206617
v 0.066410 -1.271587 -0.118104
v -0.001315 -1.278173 -0.039657
v -0.081802 -1.275945 0.025709
v -0.171958 -1.264992 0.075483
v -0.268318 -1.245732 0.107752
v -0.367178 -1.218907 0.121276
v -0.464741 -1.185546 0.115535
v -0.557255 -1.146933 0.090749
v -0.641167 -1.104552 0.047872
v -0.713251 -1.060030 -0.011450
v -0.770738 -1.015078 -0.084936
v -0.811418 -0.971425 -0.169762
v -0.833728 -0.930748 -0.262668
v -0.836810 -0.894610 -0.360085
v -0.820546 -0.864399 -0.458269
v -0.785561 -0.841277 -0.553445
v -0.733200 -0.826133 -0.641958
v -0.665474 -0.819547 -0.720405
v -0.584987 -0.821775 -0.785771
v -0.494831 -0.832729 -0.835545
v -0.398472 -0.851988 -0.867814
v -0.299611 -0.878814 -0.881338
vt 0.000000 0.000000
vt 1.000000 0.000000
vt 1.000000 1.000000
vt 0.000000 1.000000
vn -0.288797 -0.900540 -0.324931
usemtl Material
s 1
f 2/1/1 3/2/1 17/3/1
f 2/1/1 17/3/1 18/4/1
f 1/1/1 2/2/1 18/3/1
f 1/1/1 18/3/1 19/4/1
f 1/1/1 19/2/1 20/3/1
f 1/1/1 20/3/1 32/4/1
f 20/1/1 21/2/1 31/3/1
f 20/1/1 31/3/1 32/4/1
f 21/1/1 22/2/1 30/3/1
f 21/1/1 30/3/1 31/4/1
f 22/1/1 23/2/1 29/3/1
f 22/1/1 29/3/1 30/4/1
f 23/1/1 24/2/1 28/3/1
f 23/1/1 28/3/1 29/4/1
f 24/1/1 25/2/1 27/3/1
f 24/1/1 27/3/1 28/4/1
f 25/1/1 26/2/1 27/3/1
f 3/1/1 4/2/1 16/3/1
f 3/1/1 16/3/1 17/4/1
f 4/1/1 5/2/1 15/3/1
f 4/1/1 15/3/1 16/4/1
f 5/1/1 6/2/1 14/3/1
f 5/1/1 14/3/1 15/4/1
f 6/1/1 7/2/1 13/3/1
f 6/1/1 13/3/1 14/4/1
f 7/1/1 8/2/1 12/3/1
f 7/1/1 12/3/1 13/4/1
f 8/1/1 9/2/1 11/3/1
f 8/1/1 11/3/1 12/4/1
f 9/1/1 10/2/1 11/3/1
o Cone
v -0.202050 -0.912174 -0.875596
v 0.342165 1.057630 0.380031
v -0.109535 -0.950787 -0.850811
v -0.025623 -0.993168 -0.807933
v 0.046461 -1.037690 -0.748612
v 0.103948 -1.082642 -0.675126
v 0.144628 -1.126295 -0.590300
v 0.166938 -1.166972 -0.497394
v 0.170020 -1.203110 -0.399977
v 0.153756 -1.233321 -0.301793
v 0.118771 -1.256443 -0.206617
v 0.066410 -1.271587 -0.118104
v -0.001315 -1.278173 -0.039657
v -0.081802 -1.275945 0.025709
v -0.171958 -1.264992 0.075483
v -0.268318 -1.245732 0.107752
v -0.367178 -1.218907 0.121276
v -0.464741 -1.185546 0.115535
v -0.557255 -1.146933 0.090749
v -0.641167 -1.104552 0.047872
v -0.713251 -1.060030 -0.011450
v -0.770738 -1.015078 -0.084936
v -0.811418 -0.971425 -0.169762
v -0.833728 -0.930748 -0.262668
v -0.836810 -0.894610 -0.360085
v -0.820546 -0.864399 -0.458269
v -0.785561 -0.841277 -0.553445
v -0.733200 -0.826133 -0.641958
v -0.665474 -0.819547 -0.720405
v -0.584987 -0.821775 -0.785771
v -0.494831 -0.832729 -0.835545
v -0.398472 -0.851988 -0.867814
v -0.299611 -0.878814 -0.881338
vt 0.263162 0.943094
vt 0.500000 0.500000
vt 0.354156 0.980785
vt 0.450755 1.000000
vt 0.549246 1.000000
vt 0.645845 0.980785
vt 0.181269 0.888376
vt 0.111626 0.818732
vt 0.056907 0.736840
vt 0.019215 0.645846
vt 0.000000 0.549247
vt 0.000000 0.450756
vt 0.019215 0.354157
vt 0.056906 0.263162
vt 0.111624 0.181269
vt 0.181268 0.111625
vt 0.263161 0.056906
vt 0.354155 0.019215
vt 0.450754 0.000000
vt 0.549246 0.000000
vt 0.645845 0.019215
vt 0.736839 0.056906
vt 0.818732 0.111625
vt 0.888376 0.181269
vt 0.943095 0.263162
vt 0.980785 0.354156
vt 1.000000 0.450755
vt 1.000000 0.549247
vt 0.980785 0.645845
vt 0.943094 0.736839
vt 0.888375 0.818732
vt 0.818731 0.888376
vt 0.736839 0.943094
vn -0.060549 0.562365 -0.824641
vn 0.288797 0.900540 0.324931
vn 0.123447 0.512558 -0.849696
vn 0.305277 0.450423 -0.838954
vn 0.477706 0.378430 -0.792810
vn 0.633839 0.299417 -0.713126
vn -0.239448 0.597919 -0.764946
vn -0.406232 0.617939 -0.673116
vn -0.554582 0.621815 -0.552934
vn -0.678945 0.609577 -0.409131
vn -0.774834 0.581744 -0.247322
vn -0.838771 0.539476 -0.073489
vn -0.868435 0.484329 0.105808
vn -0.862697 0.418348 0.284066
vn -0.821619 0.343944 0.454543
vn -0.746544 0.263802 0.610767
vn -0.640095 0.180975 0.746666
vn -0.506180 0.098575 0.856746
vn -0.349956 0.019868 0.936521
vn -0.177526 -0.052004 0.982727
vn 0.004273 -0.114231 0.993439
vn 0.188208 -0.164342 0.968261
vn 0.366955 -0.200323 0.908383
vn 0.533586 -0.220893 0.816370
vn 0.681753 -0.225288 0.696005
vn 0.805994 -0.213477 0.552049
vn 0.901761 -0.185949 0.390118
vn 0.965667 -0.143773 0.216285
vn 0.995361 -0.088534 0.036958
vn 0.989715 -0.022279 -0.141148
vn 0.948790 0.052553 -0.311472
vn 0.873867 0.133213 -0.467513
vn 0.767602 0.216590 -0.603198
usemtl Material
s 1
f 64/5/2 34/6/3 65/7/4
f 33/8/5 34/6/3 35/9/6
f 34/6/3 33/8/5 65/7/4
f 35/9/6 34/6/3 36/10/7
f 63/11/8 34/6/3 64/5/2
f 62/12/9 34/6/3 63/11/8
f 61/13/10 34/6/3 62/12/9
f 60/14/11 34/6/3 61/13/10
f 59/15/12 34/6/3 60/14/11
f 58/16/13 34/6/3 59/15/12
f 57/17/14 34/6/3 58/16/13
f 56/18/15 34/6/3 57/17/14
f 55/19/16 34/6/3 56/18/15
f 54/20/17 34/6/3 55/19/16
f 53/21/18 34/6/3 54/20/17
f 52/22/19 34/6/3 53/21/18
f 51/23/20 34/6/3 52/22/19
f 50/24/21 34/6/3 51/23/20
f 49/25/22 34/6/3 50/24/21
f 48/26/23 34/6/3 49/25/22
f 47/27/24 34/6/3 48/26/23
f 46/28/25 34/6/3 47/27/24
f 45/29/26 34/6/3 46/28/25
f 44/30/27 34/6/3 45/29/26
f 43/31/28 34/6/3 44/30/27
f 42/32/29 34/6/3 43/31/28
f 41/33/30 34/6/3 42/32/29
f 40/34/31 34/6/3 41/33/30
f 39/35/32 34/6/3 40/34/31
f 38/36/33 34/6/3 39/35/32
f 37/37/34 34/6/3 38/36/33
f 36/10/7 34/6/3 37/37/34
