# Blender v2.76 (sub 0) OBJ File: 'player.blend'
# www.blender.org
mtllib player.mtl
o Cube
v 0.132453 0.712841 -0.339260
v 0.132453 0.712841 0.486944
v -0.693751 0.712841 0.486943
v -0.693750 0.712841 -0.339260
v 0.132453 1.539045 -0.339260
v 0.132453 1.539045 0.486944
v -0.693751 1.539045 0.486943
v -0.693751 1.539045 -0.339260
vn 0.000000 -1.000000 0.000000
vn 0.000000 1.000000 0.000000
vn 1.000000 0.000000 0.000000
vn -0.000000 0.000000 1.000000
vn -1.000000 -0.000000 -0.000000
vn 0.000000 0.000000 -1.000000
usemtl Material
s off
f 2//1 3//1 4//1
f 8//2 7//2 6//2
f 5//3 6//3 2//3
f 6//4 7//4 3//4
f 3//5 7//5 8//5
f 1//6 4//6 8//6
f 1//1 2//1 4//1
f 5//2 8//2 6//2
f 1//3 5//3 2//3
f 2//4 6//4 3//4
f 4//5 3//5 8//5
f 5//6 1//6 8//6
